<svg xmlns="http://www.w3.org/2000/svg" xmlns:xlink="http://www.w3.org/1999/xlink" version="1.1" x="0px" y="0px" viewBox="0 0 1000 1250" enable-background="new 0 0 1000 1000" xml:space="preserve"><g><path d="M947.79,314.721l-39.166-46.078H91.375l-39.166,46.078L39.9,528.084l0.675,1.903c0.929,2.619,23.046,64.421,48.353,89.728   l2.929,2.929h816.285l2.929-2.929c25.307-25.307,47.424-87.108,48.353-89.728l0.676-1.903L947.79,314.721z M64.561,536.644H235.11   l12.377,32.475H79.166C73.17,557.257,68.074,545.352,64.561,536.644z M268.89,569.118l-12.377-32.475h490.655l-12.377,32.475   H268.89z M768.572,536.644h166.87c-3.51,8.707-8.604,20.612-14.601,32.475H756.195L768.572,536.644z M60.594,516.644l10.846-188   h857.121l10.846,188H60.594z M100.625,288.644h798.751l17,20H83.624L100.625,288.644z M899.667,602.644H100.333   c-3.372-3.836-6.703-8.466-9.924-13.525h819.187C906.373,594.176,903.041,598.806,899.667,602.644z"/><path d="M690,348.644v68h206v-68H690z M876,396.644H710v-28h166V396.644z"/><path d="M137.358,340.644c-20.953,0-38,17.047-38,38s17.047,38,38,38s38-17.047,38-38S158.311,340.644,137.358,340.644z    M137.358,396.644c-9.925,0-18-8.075-18-18s8.075-18,18-18s18,8.075,18,18S147.283,396.644,137.358,396.644z"/><path d="M520,667.581c0-5.522-4.478-10-10-10s-10,4.478-10,10c0,8.069-3.029,11.628-7.615,17.016   c-5.518,6.482-12.385,14.55-12.385,29.978c0,15.43,6.867,23.498,12.385,29.981c4.585,5.388,7.615,8.948,7.615,17.019   s-3.03,11.631-7.615,17.019C486.867,785.076,480,793.145,480,808.574c0,5.522,4.477,10,10,10s10-4.478,10-10   c0-8.07,3.029-11.631,7.615-17.019c5.518-6.483,12.385-14.552,12.385-29.981s-6.867-23.498-12.385-29.981   c-4.586-5.388-7.615-8.948-7.615-17.019c0-8.068,3.029-11.627,7.615-17.015C513.133,691.077,520,683.01,520,667.581z"/><path d="M409.062,663.105c-5.327-1.467-10.829,1.668-12.292,6.993c-2.138,7.781-6.001,10.41-11.851,14.391   c-7.038,4.79-15.796,10.751-19.883,25.627c-4.087,14.879,0.397,24.478,4,32.191c2.995,6.41,4.973,10.646,2.835,18.428   c-2.138,7.782-6.002,10.413-11.852,14.394c-7.038,4.79-15.797,10.752-19.884,25.631c-1.463,5.325,1.668,10.828,6.994,12.291   c0.887,0.244,1.777,0.36,2.655,0.36c4.391,0,8.417-2.915,9.637-7.354c2.138-7.782,6.002-10.412,11.852-14.394   c7.038-4.79,15.797-10.752,19.883-25.63c4.087-14.879-0.397-24.478-4-32.191c-2.995-6.41-4.973-10.646-2.835-18.428   c2.137-7.78,6.001-10.41,11.85-14.39c7.038-4.79,15.797-10.751,19.883-25.627C417.519,670.071,414.388,664.568,409.062,663.105z"/><path d="M622.086,729.724c-5.908-3.893-9.812-6.465-12.066-14.214c-2.254-7.748-0.339-12.012,2.559-18.465   c3.487-7.766,7.827-17.431,3.518-32.244c-1.543-5.305-7.098-8.353-12.395-6.809c-5.304,1.542-8.352,7.092-6.809,12.395   c2.254,7.748,0.339,12.012-2.559,18.465c-3.487,7.766-7.827,17.431-3.518,32.244c4.31,14.815,13.156,20.645,20.266,25.329   c5.908,3.893,9.812,6.465,12.066,14.214c2.254,7.75,0.34,12.014-2.559,18.469c-3.486,7.767-7.826,17.432-3.516,32.246   c1.271,4.371,5.264,7.21,9.597,7.21c0.925,0,1.866-0.13,2.798-0.401c5.304-1.542,8.352-7.092,6.809-12.395   c-2.254-7.75-0.34-12.014,2.559-18.469c3.486-7.767,7.826-17.432,3.516-32.246C638.042,740.237,629.195,734.408,622.086,729.724z"/></g><text x="0" y="1015" fill="#000000" font-size="5px" font-weight="bold" font-family="'Helvetica Neue', Helvetica, Arial-Unicode, Arial, Sans-serif">Created by Creative Mania</text><text x="0" y="1020" fill="#000000" font-size="5px" font-weight="bold" font-family="'Helvetica Neue', Helvetica, Arial-Unicode, Arial, Sans-serif">from the Noun Project</text></svg>