<svg xmlns="http://www.w3.org/2000/svg" xmlns:xlink="http://www.w3.org/1999/xlink" version="1.1" x="0px" y="0px" viewBox="0 0 1000 1250" enable-background="new 0 0 1000 1000" xml:space="preserve"><g><path d="M914.566,434.8c-1.352-45.949-13.21-67.131-17.464-73.299c-3.455-10.359-9.628-19.85-18.455-28.455l7.267-40.164   c0.894-4.938-2.012-9.774-6.791-11.304l-98.396-31.5c-2.75-0.88-5.746-0.529-8.219,0.964c-2.472,1.493-4.178,3.981-4.679,6.826   l-4.902,27.834c-12.277-2.136-22.353-3.361-28.413-3.996L718.82,243.78l-0.103-0.238c-22.899-51.523-66.886-55.528-79.822-55.528   c-0.443,0-0.839,0.006-1.21,0.013v-19.921c0-5.523-4.478-10-10-10H489.691c-5.523,0-10,4.477-10,10v20h-26.599   c-61.407,0-96.688,80.446-106.024,104.995h-111.41c-0.03,0-0.06,0-0.09,0h-43.462c-53.164,0-93.689,14.976-120.448,44.512   c-37.398,41.279-34.078,96.019-33.545,102.425v331.688c-0.182,0.755-0.289,1.539-0.289,2.35s0.107,1.595,0.289,2.35v16.883   l0.298,1.193c8.617,34.467,43.473,43.573,60.699,43.573H449.48c35.173,15.926,72.71,23.999,111.608,23.999   s76.435-8.073,111.608-23.999h195.715l1.293-0.353c38.933-10.618,44.555-48.68,44.774-50.294l0.092-0.673V435.094L914.566,434.8z    M880.335,372.438c0.782,1.069,10.481,15.011,13.476,49.656H777.034l-35.572-119.416c13.438,1.752,34.519,5.172,56.323,11.355   c31.983,9.07,71.949,25.967,80.714,54.958l0.424,1.861L880.335,372.438z M785.539,272.618l79.134,25.333l-3.831,21.176   c-15.003-9.573-34.22-17.705-57.601-24.335c-7.065-2.003-14.024-3.727-20.69-5.21L785.539,272.618z M499.691,178.105h117.994v10   H499.691V178.105z M276.606,523.516v240.56H58.113V442.094h244.758L276.606,523.516z M309.162,422.094H229.74   c11.279-9.715,19.373-21.352,24.184-34.825c10.052-28.149,3.045-57.214-3.121-74.168h91.016L309.162,422.094z M86.614,350.894   c22.813-25.078,58.306-37.793,105.492-37.793h37.175c5.057,11.647,15.339,40.753,5.808,67.442   c-6.425,17.992-21.085,31.956-43.542,41.551H58.225C59.57,403.974,65.261,374.366,86.614,350.894z M58.113,790.772v-6.697h218.493   v33.999H99.149C97.768,818.063,65.666,817.504,58.113,790.772z M865.665,818.074H668.316l-1.998,0.924   c-33.104,15.312-68.508,23.075-105.23,23.075s-72.127-7.764-105.23-23.075l-1.998-0.924h-2.201H296.606V526.662l27.28-84.568h0.161   l44.711-149.226c11.294-26.84,40.721-84.762,84.334-84.762h36.599h137.994h8.398l0.398,0.005l0.452-0.041   c0.007,0,0.713-0.056,1.961-0.056c9.878,0,43.483,3.141,61.496,43.539l17.749,42.893l43.983,147.648H894.57v343.157   C893.832,789.217,888.754,811.076,865.665,818.074z"/><path d="M558.688,365.097c-61.165,0-118.669,23.819-161.92,67.069c-43.25,43.25-67.069,100.755-67.069,161.92   s23.819,118.669,67.069,161.92c43.25,43.25,100.755,67.069,161.92,67.069s118.669-23.819,161.92-67.069   c43.25-43.251,67.069-100.755,67.069-161.92s-23.819-118.669-67.069-161.92C677.357,388.916,619.854,365.097,558.688,365.097z    M558.688,803.075c-115.237,0-208.989-93.752-208.989-208.989s93.752-208.989,208.989-208.989s208.989,93.752,208.989,208.989   S673.926,803.075,558.688,803.075z"/><path d="M558.688,422.094c-94.837,0-171.992,77.155-171.992,171.992s77.155,171.992,171.992,171.992   s171.992-77.155,171.992-171.992S653.525,422.094,558.688,422.094z M558.688,746.078c-83.809,0-151.992-68.184-151.992-151.992   s68.184-151.992,151.992-151.992s151.992,68.184,151.992,151.992S642.497,746.078,558.688,746.078z"/><path d="M558.688,515.089c-43.56,0-78.997,35.438-78.997,78.997s35.438,78.997,78.997,78.997s78.997-35.438,78.997-78.997   S602.248,515.089,558.688,515.089z M558.688,653.083c-32.531,0-58.997-26.466-58.997-58.997s26.466-58.997,58.997-58.997   s58.997,26.466,58.997,58.997S591.22,653.083,558.688,653.083z"/><path d="M558.688,548.087c-25.364,0-45.999,20.635-45.999,45.999s20.635,45.999,45.999,45.999s45.999-20.635,45.999-45.999   S584.053,548.087,558.688,548.087z M558.688,620.085c-14.336,0-25.999-11.663-25.999-25.999s11.663-25.999,25.999-25.999   s25.999,11.663,25.999,25.999S573.024,620.085,558.688,620.085z"/><path d="M396.098,311.6h275.987c5.522,0,10-4.477,10-10s-4.478-10-10-10H396.098c-5.523,0-10,4.477-10,10   S390.575,311.6,396.098,311.6z"/><path d="M831.076,714.579c-22.883,0-41.499,18.616-41.499,41.499s18.616,41.499,41.499,41.499s41.499-18.616,41.499-41.499   S853.959,714.579,831.076,714.579z M831.076,777.577c-11.854,0-21.499-9.645-21.499-21.499s9.645-21.499,21.499-21.499   s21.499,9.645,21.499,21.499S842.931,777.577,831.076,777.577z"/><path d="M148.801,397.935c7.794,0,16.154-1.447,24.177-4.186c27.462-9.372,44.09-31.024,37.856-49.294   c-4.285-12.557-17.712-20.054-35.917-20.054c-7.793,0-16.154,1.447-24.177,4.186c-27.462,9.372-44.09,31.024-37.855,49.294   C117.17,390.438,130.597,397.935,148.801,397.935z M157.2,347.515c5.968-2.037,12.095-3.113,17.717-3.113   c8.694,0,15.68,2.678,16.989,6.513c1.899,5.566-7.046,17.647-25.388,23.907c-5.968,2.037-12.095,3.113-17.717,3.113   c-8.694,0-15.68-2.678-16.988-6.513C129.914,365.855,138.859,353.774,157.2,347.515z"/><path d="M168.11,489.545c-19.574,0-35.498,15.924-35.498,35.498s15.924,35.498,35.498,35.498s35.498-15.925,35.498-35.498   S187.684,489.545,168.11,489.545z M168.11,540.541c-8.546,0-15.498-6.952-15.498-15.498c0-8.545,6.952-15.498,15.498-15.498   s15.498,6.953,15.498,15.498C183.608,533.589,176.656,540.541,168.11,540.541z"/><path d="M454.694,594.086c0-57.343,46.652-103.995,103.995-103.995v-20c-68.371,0-123.995,55.624-123.995,123.995   S490.317,718.08,558.688,718.08v-20C501.346,698.08,454.694,651.429,454.694,594.086z"/></g><text x="0" y="1015" fill="#000000" font-size="5px" font-weight="bold" font-family="'Helvetica Neue', Helvetica, Arial-Unicode, Arial, Sans-serif">Created by Creative Mania</text><text x="0" y="1020" fill="#000000" font-size="5px" font-weight="bold" font-family="'Helvetica Neue', Helvetica, Arial-Unicode, Arial, Sans-serif">from the Noun Project</text></svg>