<svg xmlns="http://www.w3.org/2000/svg" xmlns:xlink="http://www.w3.org/1999/xlink" version="1.1" x="0px" y="0px" viewBox="0 0 1000 1250" enable-background="new 0 0 1000 1000" xml:space="preserve"><g><path d="M607,310.5H90v298h517V310.5z M587,588.5H110v-258h477V588.5z"/><path d="M668.5,134.5v590.217h284V134.5H668.5z M932.5,704.717h-244V154.5h244V704.717z"/><path d="M902.5,186.5h-192v64h192V186.5z M882.5,230.5h-152v-24h152V230.5z"/><path d="M902.5,288.5h-192v64h192V288.5z M882.5,332.5h-152v-24h152V332.5z"/><path d="M902.5,384.5h-192v200h192V384.5z M882.5,564.5h-152v-160h152V564.5z"/><path d="M806.5,528.5c24.262,0,44-19.738,44-44s-19.738-44-44-44s-44,19.738-44,44S782.238,528.5,806.5,528.5z M806.5,460.5   c13.233,0,24,10.767,24,24s-10.767,24-24,24s-24-10.767-24-24S793.267,460.5,806.5,460.5z"/><path d="M246.504,510c2.334,0,4.678-0.813,6.574-2.468l146-127.5c4.16-3.633,4.587-9.95,0.955-14.11   c-3.633-4.161-9.949-4.586-14.11-0.955l-146,127.5c-4.16,3.633-4.587,9.95-0.955,14.11C240.945,508.842,243.717,510,246.504,510z"/><path d="M320.139,554.828c1.977,2.264,4.75,3.422,7.536,3.422c2.334,0,4.678-0.813,6.574-2.468l146-127.5   c4.16-3.633,4.587-9.95,0.955-14.11c-3.632-4.16-9.95-4.587-14.11-0.955l-146,127.5   C316.933,544.351,316.506,550.668,320.139,554.828z"/><path d="M806.5,605.918c-16.863,0-30.582,13.719-30.582,30.582s13.719,30.582,30.582,30.582s30.582-13.719,30.582-30.582   S823.363,605.918,806.5,605.918z M806.5,647.082c-5.835,0-10.582-4.747-10.582-10.582s4.747-10.582,10.582-10.582   s10.582,4.747,10.582,10.582S812.335,647.082,806.5,647.082z"/><path d="M720.5,646.5h35.578c5.522,0,10-4.478,10-10s-4.478-10-10-10H720.5c-5.522,0-10,4.478-10,10S714.978,646.5,720.5,646.5z"/><path d="M892.5,626.5h-35.578c-5.522,0-10,4.478-10,10s4.478,10,10,10H892.5c5.522,0,10-4.478,10-10S898.022,626.5,892.5,626.5z"/><path d="M180.052,827.073h-29.999c-5.523,0-10,4.478-10,10s4.477,10,10,10h29.999c5.523,0,10-4.478,10-10   S185.575,827.073,180.052,827.073z"/><path d="M244.945,827.073h-29.999c-5.523,0-10,4.478-10,10s4.477,10,10,10h29.999c5.523,0,10-4.478,10-10   S250.468,827.073,244.945,827.073z"/><path d="M280.943,847.073h29.999c5.523,0,10-4.478,10-10s-4.477-10-10-10h-29.999c-5.523,0-10,4.478-10,10   S275.42,847.073,280.943,847.073z"/><path d="M351.946,847.073h29.999c5.523,0,10-4.478,10-10s-4.477-10-10-10h-29.999c-5.523,0-10,4.478-10,10   S346.423,847.073,351.946,847.073z"/><path d="M414.943,847.073h29.999c5.523,0,10-4.478,10-10s-4.477-10-10-10h-29.999c-5.523,0-10,4.478-10,10   S409.42,847.073,414.943,847.073z"/><path d="M492.929,856.145c1.953,1.952,4.512,2.929,7.071,2.929c2.56,0,5.118-0.977,7.071-2.929c3.905-3.905,3.905-10.237,0-14.143   l-22.5-22.499c-3.905-3.904-10.237-3.904-14.142,0c-3.905,3.905-3.905,10.237,0,14.143L492.929,856.145z"/><path d="M542.262,856.381c1.929,1.802,4.379,2.692,6.824,2.692c2.674,0,5.341-1.066,7.31-3.174   c3.771-4.036,3.555-10.364-0.481-14.134l-24.088-22.499c-4.038-3.771-10.364-3.554-14.134,0.481   c-3.771,4.036-3.555,10.364,0.481,14.134L542.262,856.381z"/><path d="M846.519,828.013c-5.851-5.632-13.848-11.519-23.769-17.496c-4.521-2.725-9.319-5.383-14.235-7.906   c-0.095-0.05-0.188-0.099-0.285-0.145c-14.709-7.528-30.444-13.837-42.975-17.073c-5.926-1.53-11.901-2.306-17.759-2.306   c-27.266,0-46.002,16.385-53.98,25.015c-7.848-1.62-22.75-4.823-38.248-8.822c-23.386-6.033-35.704-10.642-42.126-13.654   c10.515-5.805,10.835-13.462,9.926-17.835c-1.47-7.063-7.833-12.973-20.025-18.602c-8.649-3.993-20.35-7.893-33.837-11.276   c-16.014-4.018-33.054-6.959-48.839-8.56c1.415-1.569,2.589-3.186,3.512-4.853H632.5v-20H523.878   c-6.447-11.647-24.863-20.875-55.795-28.027c-24.938-5.766-55.934-9.593-89.583-11.163V646.5h264v-372h-588v372h254v18.813   c-33.647,1.57-64.645,5.394-89.582,11.159c-30.933,7.152-49.349,16.38-55.796,28.027H49.613v20h88.179   c-7.565,3.079-17.375,6.455-30.074,9.934c-11.849,3.245-17.766,8.972-17.588,17.021c0.235,10.687,11.74,17.665,28.941,24.855   c11.782,4.925,27.856,10.394,47.795,16.266h-27.295c-2.045,0-4.042,0.627-5.719,1.797l-98.958,68.996   c-0.212,0.147-0.416,0.304-0.614,0.466c-0.01,0.008-0.021,0.015-0.03,0.022c-0.234,0.192-0.455,0.396-0.667,0.606   c-0.054,0.054-0.104,0.111-0.158,0.166c-0.155,0.16-0.306,0.324-0.449,0.493c-0.063,0.074-0.123,0.15-0.183,0.227   c-0.125,0.157-0.246,0.318-0.361,0.483c-0.061,0.086-0.122,0.173-0.18,0.262c-0.109,0.166-0.211,0.337-0.31,0.509   c-0.051,0.089-0.105,0.176-0.153,0.267c-0.132,0.247-0.254,0.499-0.365,0.757c-0.045,0.105-0.082,0.214-0.124,0.321   c-0.065,0.168-0.129,0.336-0.186,0.507c-0.041,0.125-0.077,0.253-0.113,0.38c-0.047,0.168-0.091,0.336-0.13,0.506   c-0.027,0.12-0.055,0.239-0.078,0.36c-0.043,0.226-0.077,0.453-0.104,0.682c-0.008,0.068-0.021,0.135-0.027,0.202   c-0.031,0.309-0.045,0.618-0.047,0.929c0,0.02-0.003,0.039-0.003,0.059v32.999c0,5.522,4.477,10,10,10h607.469   c5.522,0,10-4.478,10-10v-27.717c0.958-1.534,1.521-3.341,1.521-5.282c0-3.471-1.769-6.528-4.452-8.321l-92.473-68.702   c-1.725-1.281-3.815-1.973-5.964-1.973H246.079c-5.843-1.349-34.802-8.118-64.814-16.652   c-39.007-11.092-56.989-18.666-65.201-23.052c27.27-7.701,43.097-15.371,52.283-21.753c8.987,8.592,25.746,15.669,50.571,21.409   C252.31,760.248,296.555,764.5,343.5,764.5s91.19-4.252,124.582-11.973c6.526-1.509,12.483-3.112,17.901-4.81   c1.012,0.29,2.085,0.431,3.197,0.382c18.903-0.814,46.12,2.329,71.032,8.207c21.525,5.079,33.496,10.192,39.317,13.534   c-10.732,4.62-12.54,11.285-12.11,16.161c0.887,10.04,10.873,18.784,57.851,31.331c16.124,4.307,31.985,7.802,41.434,9.783   c0.423,6.78,2.907,13.163,7.402,18.819c21.476,27.021,80.378,29.122,97.919,29.122c16.159,0,31.757-1.502,43.919-4.228   c18.328-4.107,22.313-13.514,22.429-20.681C858.487,843.041,854.61,835.8,846.519,828.013z M638.083,894.57H50.614v-12.999h587.469   V894.57z M619.354,861.571H72.441l70.272-48.996h102.206c0.012,0,0.023,0.002,0.035,0.002c0.015,0,0.03-0.002,0.045-0.002h308.406   L619.354,861.571z M74.5,626.5v-332h548v332h-244h-70H74.5z M358.5,646.5v58h-30v-58H358.5z M460.706,733.689   C429.082,740.661,387.457,744.5,343.5,744.5s-85.581-3.839-117.206-10.811c-39.772-8.767-45.304-18.208-45.766-19.189   c0.462-0.981,5.994-10.423,45.766-19.189c23.069-5.086,51.47-8.496,82.205-9.973V724.5h70v-39.165   c30.737,1.478,59.136,4.89,82.206,9.976c39.772,8.767,45.303,18.208,45.766,19.189   C506.009,715.481,500.478,724.923,460.706,733.689z M760.253,804.758c7.321,1.891,16.01,5.025,24.913,8.901   c-23.037,13.328-52.991,7.037-70.045,1.531c7.244-5.822,18.313-12.104,32.375-12.104   C751.668,803.087,755.96,803.648,760.253,804.758z M831.571,851.314c-10.771,2.414-24.814,3.743-39.546,3.743   c-37.451,0-69.442-8.015-80.964-20.096c10.913,3.398,25.702,6.771,41.438,6.771c17.908,0,37.036-4.377,53.05-18.045   c1.854,1.023,3.683,2.062,5.462,3.113c18.981,11.225,25.589,19.209,27.049,22.26C837.131,849.613,835.215,850.498,831.571,851.314z   "/></g><text x="0" y="1015" fill="#000000" font-size="5px" font-weight="bold" font-family="'Helvetica Neue', Helvetica, Arial-Unicode, Arial, Sans-serif">Created by Creative Mania</text><text x="0" y="1020" fill="#000000" font-size="5px" font-weight="bold" font-family="'Helvetica Neue', Helvetica, Arial-Unicode, Arial, Sans-serif">from the Noun Project</text></svg>