<svg xmlns="http://www.w3.org/2000/svg" xmlns:xlink="http://www.w3.org/1999/xlink" version="1.1" x="0px" y="0px" viewBox="0 0 1000 1250" enable-background="new 0 0 1000 1000" xml:space="preserve"><g><path d="M315,214.5v98h0.295c3.071,53.792,30.785,103.529,75.705,135.441V926.5h197.5V447.941   c44.92-31.913,72.634-81.65,75.705-135.441h0.295v-98H315z M374.5,234.5h16v58h-16V234.5z M335,234.5h19.5v58H335V234.5z    M466.5,856.5v50h-16v-50H466.5z M430.5,906.5H411v-50h19.5V906.5z M568.5,906.5h-82v-50h82V906.5z M572.947,434.372l-4.447,2.969   V836.5H411V437.341l-4.447-2.969c-41.955-28.014-68.075-73.023-71.228-121.872h308.85   C641.022,361.349,614.902,406.358,572.947,434.372z M644.5,292.5h-234v-58h234V292.5z"/><path d="M534.5,490h-94v134.5h94V490z M514.5,604.5h-54V510h54V604.5z"/><path d="M421.259,423.017l10.481-17.033c-19.071-11.736-39.706-52.646-46.049-67.422c0-0.001,0-0.002-0.001-0.003l-18.382,7.881   C369.893,352.469,393.363,405.85,421.259,423.017z"/><rect x="479.75" y="84.5" width="20" height="94"/><rect x="352.525" y="121.5" transform="matrix(0.337 0.9415 -0.9415 0.337 388.6889 -288.9695)" width="94" height="20"/><rect x="560.5" y="84.5" transform="matrix(0.9415 0.337 -0.337 0.9415 77.6907 -184.5719)" width="20" height="94"/><rect x="477.5" y="532.5" width="20" height="38"/></g><text x="0" y="1015" fill="#000000" font-size="5px" font-weight="bold" font-family="'Helvetica Neue', Helvetica, Arial-Unicode, Arial, Sans-serif">Created by Creative Mania</text><text x="0" y="1020" fill="#000000" font-size="5px" font-weight="bold" font-family="'Helvetica Neue', Helvetica, Arial-Unicode, Arial, Sans-serif">from the Noun Project</text></svg>