<svg xmlns="http://www.w3.org/2000/svg" xmlns:xlink="http://www.w3.org/1999/xlink" version="1.1" x="0px" y="0px" viewBox="0 0 1000 1250" enable-background="new 0 0 1000 1000" xml:space="preserve"><g><path d="M746,310.475H254c-115.794,0-210,94.206-210,210V548.5c0,115.794,94.206,210,210,210h492c115.794,0,210-94.206,210-210   v-28.025C956,404.68,861.794,310.475,746,310.475z M741.724,330.475l-11.843,11.75H277.892l-11.75-11.75H741.724z M936,548.5   c0,104.767-85.233,190-190,190H254c-104.767,0-190-85.233-190-190v-28.025c0-99.546,76.953-181.447,174.494-189.364l28.186,28.185   c1.875,1.875,4.418,2.929,7.071,2.929H734c2.639,0,5.17-1.043,7.043-2.901l27.699-27.482C862.825,343.115,936,423.404,936,520.475   V548.5z"/><path d="M260,704.475h484v-334H260V704.475z M280,684.475v-21.97h444v21.97H280z M724,390.475v252.03H280v-252.03H724z"/><path d="M162,495.915c5.523,0,10-4.477,10-10v-41.401c0-5.523-4.477-10-10-10s-10,4.477-10,10v41.401   C152,491.438,156.477,495.915,162,495.915z"/><path d="M162,579.51c5.523,0,10-4.478,10-10v-41.401c0-5.522-4.477-10-10-10s-10,4.478-10,10v41.401   C152,575.032,156.477,579.51,162,579.51z"/><path d="M224.498,497.012h-41.401c-5.523,0-10,4.478-10,10s4.477,10,10,10h41.401c5.523,0,10-4.478,10-10   S230.021,497.012,224.498,497.012z"/><path d="M150.903,507.012c0-5.522-4.477-10-10-10H99.502c-5.523,0-10,4.478-10,10s4.477,10,10,10h41.401   C146.426,517.012,150.903,512.534,150.903,507.012z"/><path d="M162,594.475c-22.056,0-40,17.944-40,40s17.944,40,40,40s40-17.944,40-40S184.056,594.475,162,594.475z M162,654.475   c-11.028,0-20-8.972-20-20s8.972-20,20-20s20,8.972,20,20S173.028,654.475,162,654.475z"/><path d="M808.02,370.475c-23.17,0-42.02,18.85-42.02,42.02s18.85,42.02,42.02,42.02s42.02-18.85,42.02-42.02   S831.189,370.475,808.02,370.475z M808.02,434.514c-12.142,0-22.02-9.878-22.02-22.02s9.878-22.02,22.02-22.02   s22.02,9.878,22.02,22.02S820.161,434.514,808.02,434.514z"/><path d="M808.02,484.492c-23.17,0-42.02,18.85-42.02,42.02s18.85,42.02,42.02,42.02s42.02-18.85,42.02-42.02   S831.189,484.492,808.02,484.492z M808.02,548.531c-12.142,0-22.02-9.878-22.02-22.02s9.878-22.02,22.02-22.02   s22.02,9.878,22.02,22.02S820.161,548.531,808.02,548.531z"/><path d="M808.02,592.455c-23.17,0-42.02,18.85-42.02,42.02s18.85,42.02,42.02,42.02s42.02-18.85,42.02-42.02   S831.189,592.455,808.02,592.455z M808.02,656.494c-12.142,0-22.02-9.878-22.02-22.02s9.878-22.02,22.02-22.02   s22.02,9.878,22.02,22.02S820.161,656.494,808.02,656.494z"/><path d="M430.004,558.809c2.354,0,4.716-0.826,6.619-2.507l118-104.295c4.139-3.657,4.528-9.977,0.871-14.115   c-3.657-4.137-9.979-4.527-14.115-0.87l-118,104.294c-4.138,3.658-4.528,9.978-0.87,14.115   C424.483,557.667,427.237,558.809,430.004,558.809z"/><path d="M453.385,628.28c1.976,2.235,4.729,3.377,7.497,3.377c2.354,0,4.716-0.826,6.619-2.507l118-104.295   c4.138-3.658,4.527-9.978,0.87-14.116c-3.657-4.136-9.978-4.525-14.116-0.87L454.255,614.164   C450.117,617.822,449.727,624.142,453.385,628.28z"/></g><text x="0" y="1015" fill="#000000" font-size="5px" font-weight="bold" font-family="'Helvetica Neue', Helvetica, Arial-Unicode, Arial, Sans-serif">Created by Creative Mania</text><text x="0" y="1020" fill="#000000" font-size="5px" font-weight="bold" font-family="'Helvetica Neue', Helvetica, Arial-Unicode, Arial, Sans-serif">from the Noun Project</text></svg>