<svg xmlns="http://www.w3.org/2000/svg" xmlns:xlink="http://www.w3.org/1999/xlink" version="1.1" x="0px" y="0px" viewBox="0 0 1000 1250" enable-background="new 0 0 1000 1000" xml:space="preserve"><g><path d="M503.066,260.127c18.485,0,33.523-15.038,33.523-33.523s-15.038-33.523-33.523-33.523   c-18.484,0-33.522,15.038-33.522,33.523S484.582,260.127,503.066,260.127z M503.066,213.081c7.457,0,13.523,6.066,13.523,13.523   s-6.066,13.523-13.523,13.523c-7.457,0-13.522-6.066-13.522-13.523S495.61,213.081,503.066,213.081z"/><path d="M564.824,387.205c-4.081-3.72-10.406-3.426-14.127,0.654L396.205,557.351c-3.72,4.081-3.428,10.406,0.654,14.127   c1.917,1.747,4.329,2.609,6.733,2.609c2.715,0,5.42-1.099,7.394-3.264l154.492-169.491   C569.199,397.25,568.906,390.926,564.824,387.205z"/><path d="M610.572,499.727c-4.081-3.72-10.406-3.427-14.127,0.654L441.953,669.872c-3.72,4.081-3.428,10.406,0.654,14.127   c1.917,1.747,4.329,2.609,6.733,2.609c2.715,0,5.42-1.099,7.394-3.264l154.492-169.491   C614.947,509.772,614.654,503.447,610.572,499.727z"/><path d="M546.089,854.072H442.594c-5.523,0-10,4.478-10,10s4.477,10,10,10h103.495c5.522,0,10-4.478,10-10   S551.611,854.072,546.089,854.072z"/><path d="M379.597,854.072h-18.749c-5.523,0-10,4.478-10,10s4.477,10,10,10h18.749c5.523,0,10-4.478,10-10   S385.12,854.072,379.597,854.072z"/><path d="M633.084,854.072h-18.748c-5.522,0-10,4.478-10,10s4.478,10,10,10h18.748c5.522,0,10-4.478,10-10   S638.606,854.072,633.084,854.072z"/><path d="M219.86,335.86c16.047,0,29.102-13.055,29.102-29.102c0-16.046-13.055-29.101-29.102-29.101   c-16.046,0-29.101,13.055-29.101,29.101C190.759,322.805,203.813,335.86,219.86,335.86z M219.86,297.657   c5.019,0,9.102,4.083,9.102,9.101s-4.083,9.102-9.102,9.102c-5.019,0-9.101-4.083-9.101-9.102S214.841,297.657,219.86,297.657z"/><path d="M132.35,588.197c1.917,1.747,4.329,2.609,6.733,2.609c2.715,0,5.42-1.1,7.394-3.264L271.93,449.91   c3.72-4.082,3.428-10.406-0.654-14.127c-4.081-3.721-10.406-3.428-14.127,0.654L131.696,574.07   C127.976,578.152,128.268,584.477,132.35,588.197z"/><path d="M254.796,814.404h-84.042c-5.523,0-10,4.478-10,10s4.477,10,10,10h84.042c5.523,0,10-4.478,10-10   S260.319,814.404,254.796,814.404z"/><path d="M119.599,814.404h-15.225c-5.523,0-10,4.478-10,10s4.477,10,10,10h15.225c5.523,0,10-4.478,10-10   S125.122,814.404,119.599,814.404z"/><path d="M866.1,252.635H698.446v-26.446c0-35.247-28.675-63.922-63.922-63.922h-269.05c-35.247,0-63.921,28.675-63.921,63.922   v26.446H108.13c-29.658,0-53.786,24.128-53.786,53.786v515.331c0,29.658,24.128,53.787,53.786,53.787h195.155   c6.672,28.165,32.013,49.189,62.189,49.189h269.05c30.176,0,55.517-21.024,62.189-49.189H866.1   c29.658,0,53.787-24.129,53.787-53.787V306.421C919.887,276.764,895.758,252.635,866.1,252.635z M866.1,272.635   c18.63,0,33.787,15.156,33.787,33.786v31.749h-201.44v-65.535H866.1z M301.553,524.556c-2.668,0.037-5.315,1.125-7.255,3.253   L168.845,665.441c-3.72,4.081-3.428,10.406,0.654,14.127c1.917,1.747,4.329,2.609,6.733,2.609c2.715,0,5.42-1.099,7.394-3.264   l117.927-129.376v217.364H74.344V358.17h227.208V524.556z M321.553,287.602h356.894v507.974H321.553V287.602z M698.446,573.854   L811.422,449.91c3.721-4.082,3.428-10.406-0.654-14.127c-4.081-3.72-10.406-3.427-14.127,0.654l-98.194,107.729V358.17h201.44   v408.732h-201.44V573.854z M365.474,182.267h269.05c24.219,0,43.922,19.703,43.922,43.922v41.413H321.553v-41.413   C321.553,201.97,341.256,182.267,365.474,182.267z M108.13,272.635h193.422v65.535H74.344v-31.749   C74.344,287.792,89.5,272.635,108.13,272.635z M74.344,821.752v-34.85h227.208v68.637H108.13   C89.5,855.539,74.344,840.382,74.344,821.752z M634.524,904.729h-269.05c-24.218,0-43.921-19.703-43.921-43.922v-45.231h356.894   v45.231C678.446,885.025,658.743,904.729,634.524,904.729z M866.1,855.539H698.446v-68.637h201.44v34.85   C899.887,840.382,884.729,855.539,866.1,855.539z"/><path d="M759.352,335.86c16.047,0,29.102-13.055,29.102-29.102c0-16.046-13.055-29.101-29.102-29.101s-29.102,13.055-29.102,29.101   C730.25,322.805,743.305,335.86,759.352,335.86z M759.352,297.657c5.019,0,9.102,4.083,9.102,9.101s-4.083,9.102-9.102,9.102   s-9.102-4.083-9.102-9.102S754.333,297.657,759.352,297.657z"/><path d="M847.916,527.154c-4.081-3.72-10.406-3.428-14.127,0.654L708.336,665.441c-3.721,4.081-3.428,10.406,0.654,14.127   c1.917,1.747,4.329,2.609,6.733,2.609c2.715,0,5.421-1.099,7.394-3.264L848.57,541.281   C852.291,537.2,851.998,530.875,847.916,527.154z"/><path d="M794.287,814.404h-84.041c-5.522,0-10,4.478-10,10s4.478,10,10,10h84.041c5.522,0,10-4.478,10-10   S799.81,814.404,794.287,814.404z"/><path d="M864.93,814.404h-15.223c-5.522,0-10,4.478-10,10s4.478,10,10,10h15.223c5.522,0,10-4.478,10-10   S870.452,814.404,864.93,814.404z"/></g><text x="0" y="1015" fill="#000000" font-size="5px" font-weight="bold" font-family="'Helvetica Neue', Helvetica, Arial-Unicode, Arial, Sans-serif">Created by Creative Mania</text><text x="0" y="1020" fill="#000000" font-size="5px" font-weight="bold" font-family="'Helvetica Neue', Helvetica, Arial-Unicode, Arial, Sans-serif">from the Noun Project</text></svg>