<svg xmlns="http://www.w3.org/2000/svg" xmlns:xlink="http://www.w3.org/1999/xlink" version="1.1" x="0px" y="0px" viewBox="0 0 1000 1250" enable-background="new 0 0 1000 1000" xml:space="preserve"><g><path d="M274.5,684.5v-125h33.25c19.161,0,34.75-15.589,34.75-34.75S326.911,490,307.75,490H274.5v-87.5h-20V490h-33.25   c-19.161,0-34.75,15.589-34.75,34.75s15.589,34.75,34.75,34.75h33.25v125H274.5z M206.5,524.75c0-8.133,6.617-14.75,14.75-14.75   h86.5c8.133,0,14.75,6.617,14.75,14.75s-6.617,14.75-14.75,14.75h-86.5C213.117,539.5,206.5,532.883,206.5,524.75z"/><path d="M690.5,624.203c43.01,0,78-34.99,78-78s-34.99-78-78-78s-78,34.99-78,78S647.49,624.203,690.5,624.203z M690.5,488.203   c31.981,0,58,26.019,58,58s-26.019,58-58,58s-58-26.019-58-58S658.519,488.203,690.5,488.203z"/><path d="M779.541,852.5c3.152-5.626,4.959-12.104,4.959-19v-47h100v-264c0-100.978-71.644-185.529-166.767-205.516l15.03-106.523   c22.817-3.393,41.426-21.616,44.729-45.021c1.978-14.018-1.622-27.967-10.136-39.278c-8.514-11.311-20.922-18.629-34.939-20.607   L401.692,58.892c-2.47-0.349-4.979-0.525-7.458-0.525c-26.22,0-48.758,19.604-52.426,45.601   c-1.948,13.805,1.531,27.589,9.797,38.813c1.022,1.388,2.121,2.7,3.257,3.969H268.5c-29.224,0-53,23.776-53,53   c0,13.941,5.371,27.104,15.124,37.063c7.41,7.567,16.722,12.648,26.876,14.783v66.21c-93.243,21.4-163,105.052-163,204.693v264h92   v47c0,6.896,1.806,13.374,4.959,19H44.5v20h906v-20H779.541z M764.5,833.5c0,10.477-8.523,19-19,19s-19-8.523-19-19v-47h38V833.5z    M264.5,786.5h442v47c0,6.896,1.806,13.374,4.959,19H259.541c3.153-5.626,4.959-12.104,4.959-19V786.5z M388.917,143.918   c-17.54-2.886-29.789-19.554-27.306-37.157c2.284-16.188,16.309-28.395,32.623-28.395c1.548,0,3.117,0.111,4.665,0.329   l330.724,46.663c8.729,1.231,16.454,5.788,21.756,12.831c5.301,7.042,7.542,15.728,6.31,24.456   c-2.32,16.452-16.771,28.789-33.442,28.374l-8.905-0.221L697.981,313.82c-7.712-0.862-15.543-1.32-23.481-1.32h-57v-61.91   c22.185-6.509,38-26.993,38-50.84c0-29.224-23.775-53-53-53H398.385l0.176-1.245L388.917,143.918z M267.729,232.727   c-17.771-0.407-32.229-15.2-32.229-32.977c0-18.196,14.804-33,33-33h334c18.196,0,33,14.804,33,33   c0,16.755-12.532,30.842-29.151,32.768l-8.849,1.025V312.5h-293c-9.147,0-18.158,0.591-27,1.731v-81.28L267.729,232.727z    M114.5,766.5v-244c0-104.766,85.234-190,190-190h370c104.767,0,190,85.234,190,190v244h-80h-78h-442h-78H114.5z M206.5,833.5v-47   h38v47c0,10.477-8.523,19-19,19S206.5,843.977,206.5,833.5z"/><rect x="140.5" y="908.5" width="676" height="20"/></g><text x="0" y="1015" fill="#000000" font-size="5px" font-weight="bold" font-family="'Helvetica Neue', Helvetica, Arial-Unicode, Arial, Sans-serif">Created by Creative Mania</text><text x="0" y="1020" fill="#000000" font-size="5px" font-weight="bold" font-family="'Helvetica Neue', Helvetica, Arial-Unicode, Arial, Sans-serif">from the Noun Project</text></svg>